<svg xmlns="http://www.w3.org/2000/svg" viewBox="0 0 140.2 94.8"><defs><style>.cls-1{fill:#fff;stroke:#009fe3;stroke-miterlimit:10;stroke-width:0.25px;}</style></defs><g id="Calque_2" data-name="Calque 2"><g id="Calque_1-2" data-name="Calque 1"><path class="cls-1" d="M132.1,23.7c-10.1-5.3-20-5.6-25.3-5.6a65.4,65.4,0,0,0-23.3,3.8c-3.5,1.2-12,4.3-19.3,10.9A44.9,44.9,0,0,0,53.6,47.2,99.5,99.5,0,0,1,37.9,70.1,80.9,80.9,0,0,1,23.4,82.8,80.1,80.1,0,0,1,9.3,91,98.3,98.3,0,0,1,0,94.7a195.3,195.3,0,0,0,22.6-6.2,95.4,95.4,0,0,0,10.1-4.2,62.8,62.8,0,0,0,10.9-6.2l2.3-1.8,3.4-3a66.6,66.6,0,0,0,7.3-8.1c.8-1,1.7-2.3,2.8-3.9s3.4-5.4,5.9-9l3-4.3a101.6,101.6,0,0,1,7.2-9.1c1.1-1.3,2.8-3.1,4.9-5.2a43.8,43.8,0,0,1,10.2-7.6,44.5,44.5,0,0,1,9.2-3.5,47,47,0,0,1,19.1-.7,57,57,0,0,1,20.2,6.4A38.3,38.3,0,0,0,132.1,23.7Z"/><path class="cls-1" d="M70.6,51,63.7,61.3s10.4.2,17.8,4c0,0,8.1,3.4,1.6,10.7S59.3,91.1,59.3,91.1l-2.6,1.2,7.1-1.5S84.5,86.7,94.1,74a8.2,8.2,0,0,0,2-5.3c.1-4.3-3.2-7-3.8-7.5s-1.7-2.4-10.7-5.9S70.6,51,70.6,51Z"/><ellipse class="cls-1" cx="74.8" cy="10.3" rx="12.2" ry="10.2"/></g></g></svg>