<svg xmlns="http://www.w3.org/2000/svg" viewBox="0 0 135.9 92.9"><defs><style>.cls-1{fill:#1b9dd9;stroke:#1b9dd9;stroke-miterlimit:10;stroke-width:0.75px;}</style></defs><g id="Calque_2" data-name="Calque 2"><g id="Calque_1-2" data-name="Calque 1"><path class="cls-1" d="M128.8,23.3c-9.8-5.1-19.5-5.4-24.6-5.5a67.4,67.4,0,0,0-22.8,3.8c-3.3,1.2-11.6,4.2-18.8,10.7a51.6,51.6,0,0,0-6.7,7.6,45,45,0,0,0-3.6,6.4A94.5,94.5,0,0,1,37,68.6,82.2,82.2,0,0,1,22.9,81,95.3,95.3,0,0,1,9.1,89a73.6,73.6,0,0,1-9,3.5,177.9,177.9,0,0,0,22-6,98.4,98.4,0,0,0,9.8-4.1,57.3,57.3,0,0,0,10.7-6.1l2.2-1.7,3.4-3a77.6,77.6,0,0,0,7.1-7.8L58,59.9c1.4-2.2,3.3-5.2,5.7-8.7s2.7-3.8,2.9-4.2c2.2-2.9,4.2-5.7,7-8.9,1.1-1.2,2.8-3,4.9-5a38.7,38.7,0,0,1,9.9-7.4,42.2,42.2,0,0,1,8.9-3.5,48.8,48.8,0,0,1,18.7-.7,58.1,58.1,0,0,1,19.7,6.4A35.4,35.4,0,0,0,128.8,23.3Z"/><path class="cls-1" d="M68.9,50,62.2,60s10.1.2,17.3,3.9c0,0,7.9,3.3,1.6,10.4S57.8,89,57.8,89l-2.4,1.2,6.9-1.5s20.1-4,29.5-16.3a8.8,8.8,0,0,0,2-5.2c.1-4.2-3.2-6.9-3.7-7.3s-1.8-2.4-10.5-5.7Z"/><ellipse class="cls-1" cx="73" cy="10.3" rx="11.9" ry="9.9"/></g></g></svg>