<svg xmlns="http://www.w3.org/2000/svg" viewBox="0 0 175.2 157.9"><defs><style>.cls-1{fill:#009fe3;stroke-width:0.75px;}.cls-1,.cls-2{stroke:#009fe3;stroke-miterlimit:10;}.cls-2{fill:#fff;stroke-width:0.25px;}</style></defs><g id="Calque_2" data-name="Calque 2"><g id="Calque_1-2" data-name="Calque 1"><rect class="cls-1" x="0.4" y="0.4" width="174.5" height="157.14"/><path class="cls-2" d="M148.9,55.2c-10.1-5.3-20.1-5.5-25.3-5.6a70.9,70.9,0,0,0-23.4,3.8c-3.4,1.3-11.9,4.3-19.2,11a43.4,43.4,0,0,0-6.9,7.9,39,39,0,0,0-3.7,6.5,99.5,99.5,0,0,1-15.7,22.9,90.4,90.4,0,0,1-14.5,12.7,96.3,96.3,0,0,1-14.1,8.2,94.1,94.1,0,0,1-9.3,3.6A172.7,172.7,0,0,0,39.4,120a107.4,107.4,0,0,0,10.1-4.1,71.3,71.3,0,0,0,10.9-6.3l2.3-1.7c.6-.5,1.8-1.5,3.4-3.1a69.4,69.4,0,0,0,7.3-8c.8-1,1.7-2.4,2.8-4s3.4-5.4,5.9-9a42.3,42.3,0,0,1,3-4.2c2.2-3,4.2-5.9,7.1-9.2l5-5.2a41.2,41.2,0,0,1,10.2-7.5,44.9,44.9,0,0,1,9.2-3.6,47,47,0,0,1,19.1-.7,59.7,59.7,0,0,1,20.2,6.5A41.6,41.6,0,0,0,148.9,55.2Z"/><path class="cls-2" d="M87.4,82.6,80.5,92.9s10.4.1,17.8,4c0,0,8.1,3.3,1.6,10.6S76,122.6,76,122.6l-2.5,1.2,7.1-1.5s20.7-4.1,30.3-16.8a7.9,7.9,0,0,0,2-5.2c.1-4.3-3.2-7.1-3.8-7.6s-1.8-2.4-10.7-5.8Z"/><ellipse class="cls-2" cx="91.6" cy="41.9" rx="12.2" ry="10.2"/></g></g></svg>