<?xml version="1.0" standalone="no"?>
<!DOCTYPE svg PUBLIC "-//W3C//DTD SVG 20010904//EN"
 "http://www.w3.org/TR/2001/REC-SVG-20010904/DTD/svg10.dtd">
<svg version="1.0" xmlns="http://www.w3.org/2000/svg"
 width="492.000000pt" height="327.000000pt" viewBox="0 0 492.000000 327.000000"
 preserveAspectRatio="xMidYMid meet">

<g transform="translate(0.000000,327.000000) scale(0.100000,-0.100000)"
fill="#000000" stroke="none">
<path d="M11 2970 c0 -213 4 -290 12 -290 7 0 6 -4 -3 -10 -16 -10 -15 -11 15
-29 19 -11 19 -12 -2 -6 -20 5 -23 2 -23 -19 0 -14 4 -26 9 -26 5 0 18 -3 28
-6 13 -4 11 0 -7 16 -17 15 -19 20 -7 16 9 -3 17 -1 17 4 0 15 26 12 40 -5 15
-19 31 -10 27 15 -3 21 -17 40 -17 24 0 -13 -53 -10 -57 3 -2 6 1 14 6 18 6 3
11 11 11 16 0 6 -4 8 -9 4 -5 -3 -12 -1 -16 5 -3 5 1 10 10 10 8 0 18 -7 21
-15 7 -18 30 -20 40 -3 5 7 2 9 -7 4 -8 -4 -3 1 11 13 l25 20 30 -28 c60 -56
79 -71 89 -72 6 -1 43 -3 81 -4 40 -2 87 -10 110 -20 22 -10 74 -23 115 -30
41 -7 107 -26 145 -42 39 -17 117 -46 175 -65 58 -20 146 -53 195 -75 50 -22
110 -44 135 -48 144 -23 252 -48 305 -72 49 -21 71 -26 120 -23 144 10 197 4
271 -27 96 -42 123 -47 244 -47 102 -1 106 -2 152 -34 26 -18 52 -30 58 -27 6
3 17 -1 26 -9 21 -22 132 -22 140 -1 4 8 18 15 32 15 l26 0 -23 21 c-12 12
-20 28 -17 36 3 8 6 17 6 19 0 9 39 4 45 -6 9 -15 22 -12 29 6 3 9 -1 30 -9
47 -11 22 -12 33 -4 43 15 18 115 19 122 2 4 -8 6 -7 6 3 1 9 8 22 16 29 12
10 16 9 22 -5 4 -13 -2 -25 -20 -39 -18 -14 -27 -31 -27 -49 0 -16 -7 -30 -16
-34 -13 -5 -13 -7 -2 -14 11 -8 11 -11 -1 -18 -11 -7 -4 -12 25 -20 65 -18
119 -14 159 13 45 31 106 41 201 32 66 -6 79 -4 127 19 29 13 81 29 116 33 45
7 69 16 89 35 15 14 52 35 82 47 30 12 69 28 85 35 75 33 158 66 255 100 111
40 191 76 227 105 13 10 49 21 80 25 32 4 96 23 143 42 47 20 130 47 185 60
55 13 103 29 107 36 5 9 16 8 42 -1 22 -8 53 -10 86 -6 53 7 72 20 49 35 -9 6
-10 9 -2 9 6 0 14 -4 18 -10 3 -5 24 -7 46 -5 42 4 67 15 35 15 -9 0 -15 4
-12 9 7 10 31 9 42 -2 21 -20 24 14 24 243 l0 250 -2455 0 -2456 0 2 -290z
m1149 120 c0 -5 -5 -10 -11 -10 -5 0 -7 5 -4 10 3 6 8 10 11 10 2 0 4 -4 4
-10z m1870 -73 c0 -8 -3 -17 -7 -20 -9 -9 -34 13 -27 24 8 14 34 11 34 -4z
m1820 -167 c0 -5 -7 -7 -15 -4 -8 4 -15 8 -15 10 0 2 7 4 15 4 8 0 15 -4 15
-10z m-2130 -80 c0 -5 -4 -10 -10 -10 -5 0 -10 5 -10 10 0 6 5 10 10 10 6 0
10 -4 10 -10z m1953 -17 c-18 -2 -33 -9 -33 -14 0 -6 -5 -7 -10 -4 -20 12 1
25 38 23 l37 -1 -32 -4z m-4558 -23 c3 -5 -1 -10 -9 -10 -8 0 -18 5 -21 10 -3
6 1 10 9 10 8 0 18 -4 21 -10z m1185 -20 c0 -5 -5 -10 -11 -10 -5 0 -7 5 -4
10 3 6 8 10 11 10 2 0 4 -4 4 -10z m760 -70 c0 -5 -4 -10 -10 -10 -5 0 -10 5
-10 10 0 6 5 10 10 10 6 0 10 -4 10 -10z m648 -23 c2 -12 -3 -17 -17 -17 -12
0 -21 6 -21 13 0 31 32 34 38 4z m-1327 -92 c-1 -15 -24 -12 -29 3 -3 9 2 13
12 10 10 -1 17 -7 17 -13z m-163 -6 c-2 -6 -8 -10 -13 -10 -5 0 -11 4 -13 10
-2 6 4 11 13 11 9 0 15 -5 13 -11z m32 -39 c0 -5 -4 -10 -10 -10 -5 0 -10 5
-10 10 0 6 5 10 10 10 6 0 10 -4 10 -10z m680 -20 c0 -5 -7 -10 -15 -10 -8 0
-15 5 -15 10 0 6 7 10 15 10 8 0 15 -4 15 -10z m-520 -10 c0 -5 -4 -10 -10
-10 -5 0 -10 5 -10 10 0 6 5 10 10 10 6 0 10 -4 10 -10z m870 0 c0 -5 -4 -10
-10 -10 -5 0 -10 5 -10 10 0 6 5 10 10 10 6 0 10 -4 10 -10z m-710 -46 c0 -9
-5 -14 -12 -12 -18 6 -21 28 -4 28 9 0 16 -7 16 -16z m195 -4 c3 -5 -1 -10
-10 -10 -9 0 -13 5 -10 10 3 6 8 10 10 10 2 0 7 -4 10 -10z m-285 -21 c0 -5
-7 -9 -15 -9 -15 0 -20 12 -9 23 8 8 24 -1 24 -14z m1004 -15 c10 -26 7 -34
-13 -34 -26 0 -36 17 -21 35 16 19 26 19 34 -1z m33 -50 c9 -23 -13 -40 -32
-24 -12 10 -13 16 -4 26 15 18 28 18 36 -2z m370 0 c10 -26 -14 -41 -35 -21
-15 16 -15 19 -2 27 21 14 30 12 37 -6z m89 -5 c10 -17 -13 -36 -27 -22 -12
12 -4 33 11 33 5 0 12 -5 16 -11z m-151 -9 c-3 -5 -10 -10 -16 -10 -5 0 -9 5
-9 10 0 6 7 10 16 10 8 0 12 -4 9 -10z m-405 -10 c0 -5 -5 -10 -11 -10 -5 0
-7 5 -4 10 3 6 8 10 11 10 2 0 4 -4 4 -10z m-319 -23 c-1 -12 -15 -9 -19 4 -3
6 1 10 8 8 6 -3 11 -8 11 -12z m379 -1 c0 -7 -9 -16 -20 -19 -11 -3 -20 -1
-20 5 0 5 -6 6 -12 3 -7 -4 -4 1 6 9 24 20 46 21 46 2z m-46 -124 c8 -13 -11
-35 -23 -28 -16 10 -14 36 3 36 8 0 17 -4 20 -8z m76 -22 c0 -5 -2 -10 -4 -10
-3 0 -8 5 -11 10 -3 6 -1 10 4 10 6 0 11 -4 11 -10z"/>
<path d="M4897 2740 c3 -10 0 -21 -6 -24 -7 -4 -8 -1 -5 8 3 9 1 16 -6 16 -17
0 -40 -26 -32 -36 4 -4 -5 0 -20 9 -35 22 -41 21 -28 -2 9 -18 7 -19 -20 -16
-17 2 -35 7 -40 10 -6 3 -10 0 -10 -8 0 -10 -8 -13 -26 -9 -16 3 -30 -1 -35
-9 -6 -10 -9 -10 -9 -1 0 12 -42 17 -53 5 -4 -3 -2 -11 3 -18 6 -8 6 -12 -3
-12 -21 -1 -81 -14 -86 -19 -2 -2 31 -4 75 -3 43 0 91 -2 107 -6 15 -4 27 -3
27 3 0 5 27 8 65 5 53 -3 66 -1 71 12 6 14 8 14 20 -2 7 -10 14 -13 14 -8 0 6
4 4 9 -3 5 -8 9 12 10 51 1 48 -2 66 -13 70 -9 4 -12 0 -9 -13z m-32 -57 c-5
-10 -7 -21 -7 -25 2 -10 -2 -10 -22 -2 -9 3 -16 10 -16 15 0 4 7 6 16 2 10 -4
17 2 21 16 3 12 8 20 11 17 2 -3 1 -13 -3 -23z m-98 1 c-3 -3 -12 -4 -19 -1
-8 3 -5 6 6 6 11 1 17 -2 13 -5z m-57 -12 c0 -5 -7 -9 -15 -9 -8 0 -12 4 -9 9
3 4 9 8 15 8 5 0 9 -4 9 -8z m92 -14 c-7 -7 -12 -8 -12 -2 0 6 3 14 7 17 3 4
9 5 12 2 2 -3 -1 -11 -7 -17z m-22 2 c0 -5 -4 -10 -9 -10 -6 0 -13 5 -16 10
-3 6 1 10 9 10 9 0 16 -4 16 -10z m-60 -20 c0 -5 -4 -10 -10 -10 -5 0 -10 5
-10 10 0 6 5 10 10 10 6 0 10 -4 10 -10z"/>
<path d="M4830 2730 c-9 -6 -10 -10 -3 -10 6 0 15 5 18 10 8 12 4 12 -15 0z"/>
<path d="M129 2710 c0 -3 -2 -13 -4 -22 -4 -20 10 -24 21 -7 3 6 1 16 -5 22
-6 6 -11 9 -12 7z"/>
<path d="M137 2649 c7 -7 15 -10 18 -7 3 3 -2 9 -12 12 -14 6 -15 5 -6 -5z"/>
<path d="M125 2615 c0 -13 3 -21 8 -18 4 2 7 10 7 18 0 8 -3 16 -7 18 -5 3 -8
-5 -8 -18z"/>
<path d="M4754 2615 c-4 -8 -10 -12 -15 -9 -5 3 -9 1 -9 -4 0 -16 58 -35 85
-28 19 5 25 3 25 -10 0 -14 3 -14 15 -4 9 7 18 10 22 6 3 -3 1 -6 -6 -6 -7 0
-10 -4 -7 -9 7 -10 -9 -8 -36 3 -9 4 -25 3 -36 -3 -11 -6 -22 -7 -26 -4 -3 3
-6 1 -6 -5 0 -6 -11 -9 -24 -6 -13 2 -29 -2 -36 -11 -7 -8 -9 -15 -4 -15 4 0
-1 -7 -12 -15 -18 -14 -17 -15 19 -13 26 2 44 9 53 23 18 25 20 25 38 0 8 -11
25 -21 38 -22 13 -1 37 -3 55 -5 28 -4 31 -2 30 21 -1 15 -6 29 -12 33 -6 5
-5 8 3 8 21 0 15 63 -8 77 -20 13 -54 7 -44 -8 3 -5 1 -9 -5 -9 -5 0 -11 6
-14 13 -3 9 -9 9 -26 -1 -18 -10 -21 -10 -21 3 0 19 -29 20 -36 0z"/>
<path d="M4706 2603 c-11 -11 -6 -23 9 -23 8 0 15 -6 15 -12 0 -7 12 -13 26
-13 22 0 23 1 8 10 -9 6 -25 18 -35 27 -9 9 -20 14 -23 11z"/>
<path d="M350 2590 c0 -5 -12 -13 -26 -16 -23 -6 -24 -8 -10 -16 20 -11 71 17
61 32 -8 13 -25 13 -25 0z"/>
<path d="M89 2565 c0 -11 -3 -14 -6 -7 -7 18 -21 15 -28 -7 -4 -13 -12 -18
-21 -14 -8 3 -13 12 -10 20 3 8 1 11 -4 8 -6 -3 -10 -22 -10 -42 0 -27 3 -34
15 -29 8 3 15 1 15 -4 0 -6 -6 -10 -12 -10 -9 0 -8 -4 2 -10 13 -8 12 -10 -2
-10 -16 0 -18 -12 -18 -107 1 -95 2 -105 14 -84 8 15 16 20 20 13 4 -6 -2 -20
-13 -31 -11 -11 -17 -22 -14 -25 3 -3 13 4 22 14 11 14 20 17 30 11 11 -7 9
-10 -8 -16 -24 -7 -27 -20 -8 -29 6 -3 0 -4 -16 -1 l-27 5 0 -64 c0 -42 4 -66
13 -69 9 -4 9 -7 0 -14 -10 -7 -12 -60 -10 -209 l2 -201 39 9 c21 5 44 7 50 5
6 -2 17 5 24 17 l13 21 -4 -22 c-4 -19 -2 -20 14 -10 18 11 20 31 6 54 -4 6
-3 14 3 18 5 3 12 -12 16 -36 6 -33 9 -38 17 -24 5 9 7 30 3 45 -3 16 -1 30 4
32 6 2 0 9 -12 17 -21 13 -22 13 -10 -1 10 -13 9 -16 -10 -21 -29 -8 -34 -2
-17 20 12 16 12 17 -2 6 -13 -11 -15 -9 -11 18 3 19 7 26 12 19 4 -7 10 -8 13
-3 3 5 -3 14 -14 21 -16 10 -19 9 -19 -3 0 -8 -4 -15 -10 -15 -5 0 -10 7 -10
15 0 17 -12 19 -26 5 -8 -8 -15 -6 -25 6 -13 16 -12 17 9 12 12 -4 22 -2 22 4
0 6 7 7 16 4 10 -4 13 -2 8 6 -5 8 -2 9 9 5 11 -4 22 2 33 16 11 15 18 18 21
10 7 -19 19 -16 48 13 26 26 49 25 39 -1 -4 -8 -10 -13 -14 -10 -5 3 -11 2
-13 -2 -3 -5 10 -8 28 -9 27 -1 31 2 27 18 -4 17 0 19 28 16 20 -2 35 2 37 10
3 7 -1 10 -11 6 -11 -4 -16 -1 -16 10 0 18 15 21 25 6 4 -6 21 -8 42 -4 26 5
34 4 29 -5 -4 -6 -2 -11 3 -11 6 0 11 5 11 11 0 6 7 8 15 5 9 -3 18 1 21 9 9
22 35 19 28 -2 -5 -14 -4 -15 4 -4 6 8 17 11 27 8 9 -4 13 -3 10 3 -4 6 13 9
43 9 26 -1 59 2 73 6 21 7 22 6 10 -9 -18 -22 -9 -20 19 4 18 16 26 17 37 8
22 -18 67 -19 113 -3 23 8 52 13 64 10 11 -3 74 -7 139 -8 90 -2 117 1 117 11
0 7 7 24 16 37 9 13 13 29 10 34 -4 5 -32 15 -64 22 -62 13 -106 32 -137 58
-11 10 -32 22 -46 28 -24 10 -28 9 -37 -12 -6 -13 -22 -31 -36 -40 -29 -19
-54 -12 -36 10 7 8 9 19 5 25 -4 7 2 14 15 17 13 4 19 11 16 20 -3 8 -6 17 -6
19 0 2 -5 4 -10 4 -6 0 -39 18 -74 40 -59 37 -68 40 -129 38 -52 -2 -70 2 -86
17 -25 21 -25 25 -8 49 16 22 117 35 117 15 0 -6 6 -9 13 -6 8 3 19 2 26 -2 7
-5 -4 -9 -26 -10 -21 -2 -46 -3 -55 -4 -10 -1 -18 -7 -18 -14 0 -15 -16 -17
-25 -3 -10 16 -25 12 -19 -5 7 -18 61 -20 66 -3 4 10 53 17 128 18 14 0 42 0
63 0 20 0 37 -4 37 -9 0 -12 89 -43 102 -35 5 3 21 1 36 -4 15 -6 36 -13 47
-18 11 -4 28 -6 38 -5 9 1 17 -2 17 -6 0 -5 27 -15 59 -21 33 -7 61 -18 63
-24 3 -9 12 -9 37 1 25 11 35 11 44 2 9 -9 9 -12 0 -9 -6 2 -11 -1 -11 -7 0
-5 4 -9 9 -8 5 2 9 -2 9 -8 0 -6 7 -8 17 -5 10 4 14 4 10 0 -17 -17 136 -103
194 -108 14 -2 31 -6 37 -10 7 -4 12 -4 12 -1 0 4 15 -3 33 -14 39 -24 48 -20
40 19 l-5 28 65 1 c75 1 108 -13 164 -68 21 -21 50 -46 66 -56 15 -9 27 -24
27 -32 0 -11 7 -14 23 -11 18 3 23 0 22 -14 -1 -9 -4 -21 -8 -24 -11 -12 -8
-36 4 -28 8 4 9 0 4 -15 -4 -12 -2 -21 4 -21 6 0 11 -9 11 -20 0 -11 7 -23 15
-26 8 -4 15 -12 15 -19 0 -8 9 -17 20 -20 26 -8 45 -42 27 -48 -6 -2 3 -4 21
-3 28 1 30 3 15 14 -15 11 -14 12 10 10 15 -1 27 -8 27 -15 0 -7 18 -21 41
-29 24 -10 44 -26 50 -40 5 -13 12 -24 16 -23 5 1 10 0 13 -1 3 -1 17 -3 32
-4 25 -3 27 0 22 23 l-6 26 16 -28 c13 -24 21 -54 25 -90 1 -5 5 -6 10 -3 5 4
17 3 26 0 13 -5 14 -8 3 -15 -9 -6 -7 -9 10 -9 12 0 22 5 22 11 0 6 7 9 15 5
9 -3 15 0 15 9 0 8 -4 15 -9 15 -5 0 -7 9 -4 20 l6 21 14 -21 c8 -11 21 -20
29 -20 17 0 19 20 2 21 -7 1 3 5 22 10 42 10 73 3 50 -11 -13 -8 -12 -10 2
-10 9 0 20 9 23 20 3 11 11 20 17 20 6 0 8 13 5 33 -6 37 5 67 17 48 4 -6 5
-20 1 -30 -5 -16 -2 -18 15 -14 11 3 20 10 20 15 0 6 7 8 15 4 18 -7 20 5 3
23 -11 11 -8 13 17 8 17 -4 25 -4 18 -1 -16 7 -5 34 11 28 8 -3 20 13 32 38
10 24 22 46 27 49 5 3 7 8 6 10 -5 7 29 86 44 100 7 8 32 29 55 48 23 18 42
37 42 42 0 4 -27 -3 -60 -17 -33 -13 -66 -24 -75 -24 -8 0 -23 -9 -32 -20 -11
-12 -30 -20 -50 -20 -30 0 -33 3 -33 29 0 17 4 32 9 35 12 8 20 66 10 72 -5 3
-27 -4 -49 -15 -23 -11 -48 -17 -56 -14 -8 3 -17 -2 -20 -12 -5 -13 -14 -15
-36 -11 -26 5 -28 4 -18 -14 8 -14 8 -20 0 -20 -6 0 -13 6 -16 14 -7 20 -64
42 -72 29 -4 -5 -33 -13 -66 -17 -32 -3 -66 -11 -76 -16 -10 -5 -20 -6 -22 -1
-2 4 -15 11 -30 15 -21 5 -28 3 -28 -9 0 -8 9 -15 20 -15 13 0 18 -5 14 -15
-4 -8 -14 -15 -23 -15 -10 0 -21 -3 -25 -7 -4 -5 -13 -8 -18 -8 -6 0 -17 -16
-24 -35 -7 -19 -13 -27 -13 -17 -1 28 46 109 82 140 17 15 27 27 23 27 -5 0
-2 7 5 17 13 15 12 15 -8 5 -21 -12 -52 -7 -63 9 -8 11 -163 19 -179 10 -9 -6
-8 -11 4 -21 26 -22 16 -31 -16 -15 -17 9 -40 32 -51 51 -13 22 -28 34 -42 34
-12 0 -26 4 -32 9 -5 6 -29 4 -61 -4 -44 -11 -59 -11 -99 1 -26 8 -65 14 -87
14 -29 0 -55 10 -94 36 -51 34 -60 36 -136 38 -62 1 -87 5 -101 18 -11 10 -34
20 -53 23 -107 16 -107 16 -92 27 10 7 11 11 2 14 -7 3 -28 16 -48 30 -38 26
-50 30 -40 14 6 -9 -109 31 -148 52 -12 6 -57 19 -101 30 -45 10 -94 24 -110
30 -26 10 -27 12 -10 19 16 5 12 9 -21 23 -70 30 -95 32 -102 7 -3 -11 -12
-21 -20 -21 -8 0 -11 -4 -8 -10 3 -5 2 -10 -3 -10 -6 0 -12 6 -15 13 -6 17
-79 39 -90 28 -6 -6 10 -12 37 -16 62 -10 59 -23 -5 -18 -43 3 -50 1 -45 -12
4 -11 -1 -15 -17 -15 -25 0 -80 -33 -71 -43 3 -3 -2 -16 -11 -29 l-17 -23 4
26 4 25 -35 -18 c-19 -10 -42 -18 -51 -18 -9 0 -21 -5 -28 -12 -9 -9 -12 -9
-12 1 0 7 -5 9 -11 6 -6 -4 -24 7 -41 24 -34 34 -74 41 -80 14 -3 -12 -8 -7
-16 17 -11 32 -10 33 3 16 13 -18 20 -15 16 6 0 4 14 0 33 -8 24 -12 38 -14
51 -7 19 11 55 -11 55 -33 0 -7 8 -10 20 -7 11 3 20 11 20 19 0 8 -6 11 -16 7
-11 -4 -15 -2 -12 7 2 8 25 21 51 30 26 9 60 28 77 43 16 15 40 27 52 27 18 0
20 2 9 9 -8 5 -24 6 -37 1 -12 -5 -31 -6 -41 -4 -11 3 -35 -2 -54 -10 l-34
-16 40 5 c29 4 36 3 25 -4 -8 -6 -24 -11 -35 -12 -17 -1 -16 -2 5 -9 14 -4 18
-9 10 -10 -8 -1 -28 -3 -45 -5 -16 -1 -40 -6 -52 -10 -15 -5 -27 -1 -42 14
-12 12 -29 21 -38 21 -19 0 -47 47 -32 52 5 2 4 10 -1 18 -8 12 -10 12 -11 -5z
m1 -34 c7 -13 7 -22 0 -26 -5 -3 -10 1 -10 9 0 9 -4 16 -10 16 -5 0 -10 5 -10
10 0 17 19 11 30 -9z m35 -51 c-3 -5 -12 -10 -18 -10 -7 0 -6 4 3 10 19 12 23
12 15 0z m445 -54 c0 -14 -14 -36 -22 -36 -5 0 -7 4 -4 9 4 5 -3 7 -13 4 -16
-4 -18 -9 -10 -30 9 -25 12 -69 2 -45 -3 7 -24 12 -54 12 -30 0 -48 -4 -44
-10 3 -5 -1 -23 -9 -39 -15 -28 -15 -29 12 -34 27 -5 66 18 57 33 -3 4 2 11
11 14 25 10 34 7 34 -9 0 -8 -6 -15 -12 -15 -7 0 -30 -18 -51 -40 -27 -30 -36
-46 -32 -60 4 -13 1 -22 -9 -26 -9 -3 -14 -10 -11 -14 6 -10 -14 -25 -21 -17
-3 3 2 19 11 37 18 34 14 50 -8 32 -14 -12 -77 12 -77 29 0 5 -7 9 -15 9 -8 0
-15 4 -15 9 0 5 8 8 17 7 10 0 19 6 21 15 3 18 0 18 -84 22 -31 1 -43 6 -50
22 -5 11 -13 19 -19 17 -5 -2 -13 5 -17 15 -4 10 -5 1 -2 -19 5 -31 3 -38 -11
-38 -11 0 -15 5 -10 19 4 14 0 20 -17 24 l-23 6 22 21 c14 12 28 17 39 13 13
-5 15 -3 9 7 -5 9 -4 11 3 6 7 -4 12 -14 12 -22 0 -8 5 -14 10 -14 6 0 10 4
10 10 0 6 10 5 25 -2 14 -6 21 -14 16 -17 -6 -4 -6 -12 0 -21 8 -11 12 -12 15
-3 3 7 21 17 41 24 29 9 37 9 44 -2 8 -12 11 -12 22 1 7 8 19 16 27 18 8 2 18
8 21 13 15 25 159 83 159 65z m-515 -46 c-3 -5 -11 -10 -16 -10 -6 0 -7 5 -4
10 3 6 11 10 16 10 6 0 7 -4 4 -10z m330 -10 c3 -5 -1 -10 -10 -10 -9 0 -13 5
-10 10 3 6 8 10 10 10 2 0 7 -4 10 -10z m-285 -11 c0 -5 -7 -9 -15 -9 -9 0
-12 -6 -9 -15 4 -9 0 -15 -10 -15 -9 0 -16 -5 -16 -11 0 -5 -5 -7 -12 -3 -8 5
-6 11 5 19 22 16 21 25 0 25 -27 0 1 15 31 16 14 1 26 -2 26 -7z m10 -59 c18
-12 2 -12 -25 0 -13 6 -15 9 -5 9 8 0 22 -4 30 -9z m134 -44 c-6 -15 -53 -28
-67 -19 -11 6 31 31 55 32 11 1 15 -4 12 -13z m-74 -35 c0 -4 -3 -11 -7 -14
-8 -9 -34 13 -28 24 6 9 35 1 35 -10z m110 -21 c0 -13 -11 -13 -30 0 -12 8
-11 10 8 10 12 0 22 -4 22 -10z m-240 -20 c0 -5 -2 -10 -4 -10 -3 0 -8 5 -11
10 -3 6 -1 10 4 10 6 0 11 -4 11 -10z m140 0 c0 -5 -4 -10 -10 -10 -5 0 -10 5
-10 10 0 6 5 10 10 10 6 0 10 -4 10 -10z m145 -20 c-3 -5 -13 -10 -21 -10 -8
0 -12 5 -9 10 3 6 13 10 21 10 8 0 12 -4 9 -10z m-145 -10 c0 -5 -7 -7 -15 -4
-8 4 -15 8 -15 10 0 2 7 4 15 4 8 0 15 -4 15 -10z m-80 -10 c0 -5 -5 -10 -11
-10 -5 0 -7 5 -4 10 3 6 8 10 11 10 2 0 4 -4 4 -10z m704 -21 c-3 -5 -10 -7
-15 -3 -5 3 -7 10 -3 15 3 5 10 7 15 3 5 -3 7 -10 3 -15z m-524 -9 c0 -5 -7
-10 -16 -10 -8 0 -12 5 -9 10 3 6 10 10 16 10 5 0 9 -4 9 -10z m650 -4 c0 -3
-4 -8 -10 -11 -5 -3 -10 -1 -10 4 0 6 5 11 10 11 6 0 10 -2 10 -4z m-830 -16
c0 -5 -4 -10 -10 -10 -5 0 -10 5 -10 10 0 6 5 10 10 10 6 0 10 -4 10 -10z
m195 -10 c3 -5 1 -10 -4 -10 -6 0 -11 5 -11 10 0 6 2 10 4 10 3 0 8 -4 11 -10z
m60 0 c-3 -5 -11 -10 -16 -10 -6 0 -7 5 -4 10 3 6 11 10 16 10 6 0 7 -4 4 -10z
m125 -10 c0 -5 -2 -10 -4 -10 -3 0 -8 5 -11 10 -3 6 -1 10 4 10 6 0 11 -4 11
-10z m-100 -21 c0 -5 -4 -9 -8 -9 -5 0 -9 7 -9 15 0 8 4 12 9 9 4 -3 8 -9 8
-15z m-100 7 c0 -3 -4 -8 -10 -11 -5 -3 -10 -1 -10 4 0 6 5 11 10 11 6 0 10
-2 10 -4z m240 -16 c0 -5 -2 -10 -4 -10 -3 0 -8 5 -11 10 -3 6 -1 10 4 10 6 0
11 -4 11 -10z m283 -10 c-5 -19 -23 -29 -23 -12 0 7 20 32 26 32 1 0 0 -9 -3
-20z m-386 -16 c-9 -9 -28 6 -21 18 4 6 10 6 17 -1 6 -6 8 -13 4 -17z m78 5
c-10 -15 -25 -10 -19 6 4 8 10 12 15 9 5 -3 7 -10 4 -15z m95 11 c0 -5 -5 -10
-11 -10 -5 0 -7 5 -4 10 3 6 8 10 11 10 2 0 4 -4 4 -10z m265 0 c-3 -5 -13
-10 -21 -10 -8 0 -14 5 -14 10 0 6 9 10 21 10 11 0 17 -4 14 -10z m55 0 c0 -5
-5 -10 -11 -10 -5 0 -7 5 -4 10 3 6 8 10 11 10 2 0 4 -4 4 -10z m-260 -16 c0
-8 -5 -12 -10 -9 -6 4 -8 11 -5 16 9 14 15 11 15 -7z m190 -14 c0 -5 -5 -10
-11 -10 -5 0 -7 5 -4 10 3 6 8 10 11 10 2 0 4 -4 4 -10z m-40 -10 c0 -5 -4
-10 -10 -10 -5 0 -10 5 -10 10 0 6 5 10 10 10 6 0 10 -4 10 -10z m1636 -13 c4
-4 -8 -6 -27 -5 -19 0 -44 -2 -56 -6 -18 -6 -22 -4 -17 7 5 14 87 18 100 4z
m-2151 -7 c3 -5 1 -10 -4 -10 -6 0 -11 5 -11 10 0 6 2 10 4 10 3 0 8 -4 11
-10z m2225 6 c0 -2 -9 -6 -20 -9 -11 -3 -20 -1 -20 4 0 5 9 9 20 9 11 0 20 -2
20 -4z m-2325 -26 c3 -5 -1 -10 -10 -10 -9 0 -13 5 -10 10 3 6 8 10 10 10 2 0
7 -4 10 -10z m2135 5 c0 -2 -10 -9 -22 -15 -22 -11 -22 -10 -4 4 21 17 26 19
26 11z m304 -58 c2 -9 0 -15 -5 -11 -5 3 -9 11 -9 18 0 8 -7 19 -15 26 -8 7
-15 18 -15 24 1 14 38 -34 44 -57z m-174 32 c0 -4 -24 -10 -52 -14 l-53 -8 45
-12 45 -11 -74 -8 c-40 -4 -80 -10 -89 -13 -11 -5 -13 -3 -7 7 6 10 4 12 -8 7
-28 -11 -19 1 25 33 37 27 48 30 105 28 34 -2 63 -6 63 -9z m-2410 -9 c0 -5
-4 -10 -10 -10 -5 0 -10 5 -10 10 0 6 5 10 10 10 6 0 10 -4 10 -10z m2230 5
c0 -2 -10 -9 -22 -15 -22 -11 -22 -10 -4 4 21 17 26 19 26 11z m-2155 -25 c-3
-5 -11 -10 -16 -10 -6 0 -7 5 -4 10 3 6 11 10 16 10 6 0 7 -4 4 -10z m2035
-15 c0 -12 -19 -12 -23 0 -4 9 -1 12 9 8 7 -3 14 -7 14 -8z m10 -60 c0 -5 -5
-3 -10 5 -5 8 -10 20 -10 25 0 6 5 3 10 -5 5 -8 10 -19 10 -25z m319 -11 c2
-2 -44 -4 -102 -4 -68 0 -107 4 -107 10 0 10 198 4 209 -6z m-2414 -43 c3 -5
1 -12 -5 -16 -5 -3 -10 1 -10 9 0 18 6 21 15 7z m62 -27 c-9 -9 -28 6 -21 18
4 6 10 6 17 -1 6 -6 8 -13 4 -17z m2083 -4 c0 -5 -2 -10 -4 -10 -3 0 -8 5 -11
10 -3 6 -1 10 4 10 6 0 11 -4 11 -10z m-2124 -57 c-10 -10 -19 5 -10 18 6 11
8 11 12 0 2 -7 1 -15 -2 -18z m2399 -63 c-3 -5 -14 -10 -23 -9 -14 0 -13 2 3
9 27 11 27 11 20 0z"/>
<path d="M202 2328 c6 -18 25 -21 25 -3 0 8 -7 15 -14 15 -8 0 -13 -5 -11 -12z"/>
<path d="M315 2310 c-3 -5 -1 -10 4 -10 6 0 11 5 11 10 0 6 -2 10 -4 10 -3 0
-8 -4 -11 -10z"/>
<path d="M370 2300 c0 -5 -6 -10 -12 -10 -7 0 -14 -12 -14 -26 -2 -25 -2 -25
22 7 27 37 28 39 14 39 -5 0 -10 -4 -10 -10z"/>
<path d="M123 2565 c-9 -25 4 -29 17 -6 7 15 7 21 0 21 -6 0 -13 -7 -17 -15z"/>
<path d="M210 2570 c0 -5 11 -10 24 -10 14 0 28 5 31 10 4 6 -7 10 -24 10 -17
0 -31 -4 -31 -10z"/>
<path d="M4654 2557 c-10 -23 -10 -23 30 -13 21 6 32 12 23 14 -9 2 -17 8 -17
13 0 18 -25 8 -36 -14z"/>
<path d="M4493 2563 c9 -2 23 -2 30 0 6 3 -1 5 -18 5 -16 0 -22 -2 -12 -5z"/>
<path d="M4630 2559 c0 -5 5 -7 10 -4 6 3 10 8 10 11 0 2 -4 4 -10 4 -5 0 -10
-5 -10 -11z"/>
<path d="M146 2533 c-9 -22 -4 -24 17 -8 14 10 15 14 3 18 -8 3 -17 -1 -20
-10z"/>
<path d="M4340 2545 c0 -11 66 -45 85 -44 14 0 12 3 -10 11 -16 6 -37 17 -46
24 -16 14 -29 18 -29 9z"/>
<path d="M227 2500 c-9 -11 -14 -20 -11 -20 13 0 44 21 44 30 0 16 -14 11 -33
-10z"/>
<path d="M408 2483 c-10 -2 -18 -9 -18 -14 0 -14 16 -11 30 6 7 8 11 14 9 14
-2 -1 -12 -3 -21 -6z"/>
<path d="M313 2444 c-18 -8 -33 -16 -33 -18 0 -8 82 12 93 23 16 16 -19 13
-60 -5z"/>
<path d="M4101 2436 l-24 -13 26 0 c16 0 27 5 27 13 0 17 1 17 -29 0z"/>
<path d="M4335 2440 c-22 -4 -46 -5 -54 -2 -9 3 -12 1 -7 -6 9 -15 40 -14 91
3 44 14 31 17 -30 5z"/>
<path d="M4045 2413 c-53 -10 -65 -14 -65 -24 0 -6 9 -7 23 -3 12 4 30 7 40 6
9 0 17 4 17 10 0 6 6 6 15 -2 9 -7 18 -10 21 -7 9 9 -29 24 -51 20z"/>
<path d="M4248 2413 c7 -3 16 -2 19 1 4 3 -2 6 -13 5 -11 0 -14 -3 -6 -6z"/>
<path d="M4355 2400 c-3 -5 -1 -10 4 -10 6 0 11 5 11 10 0 6 -2 10 -4 10 -3 0
-8 -4 -11 -10z"/>
<path d="M4673 2399 c-6 -6 -26 -12 -45 -13 -19 -1 -39 -6 -45 -9 -7 -4 -14
-4 -16 0 -3 5 -26 7 -52 5 -25 -2 -44 -7 -41 -10 3 -3 -2 -10 -11 -17 -9 -7
-12 -14 -6 -18 5 -4 19 1 29 11 22 19 64 28 64 13 0 -5 -3 -11 -7 -14 -5 -2
-1 -2 7 0 31 9 35 7 35 -16 0 -14 6 -26 13 -29 6 -2 12 -10 12 -18 0 -8 6 -14
14 -14 8 0 17 -7 20 -16 9 -24 7 -28 -9 -14 -8 7 -26 10 -39 8 -15 -3 -24 -1
-23 6 1 6 -3 10 -10 9 -7 -2 -10 4 -7 12 10 25 -23 18 -51 -11 -14 -14 -28
-24 -30 -22 -8 8 19 68 30 68 6 0 11 9 12 20 1 11 -2 20 -8 20 -5 0 -9 -6 -9
-14 0 -7 -9 -16 -20 -19 -11 -3 -20 -1 -20 5 0 6 -7 8 -15 4 -9 -3 -15 0 -15
8 0 8 7 17 16 20 23 9 6 28 -19 20 -31 -9 -30 -8 -11 -46 15 -30 15 -32 1 -19
-10 7 -17 20 -17 27 0 8 -4 14 -10 14 -5 0 -10 -5 -10 -11 0 -6 -7 -18 -16
-26 -14 -15 -15 -14 -12 2 2 10 -3 20 -11 23 -10 3 -12 0 -8 -11 5 -13 -1 -15
-26 -13 -18 1 -42 7 -55 14 -20 11 -23 10 -34 -13 -6 -14 -16 -25 -22 -25 -6
0 -5 5 2 12 14 14 16 42 3 34 -5 -3 -11 3 -14 14 -5 21 -51 29 -62 10 -4 -6 5
-10 20 -10 30 0 43 -25 26 -51 -8 -15 -8 -19 1 -19 9 0 9 -3 -1 -12 -10 -11
-14 -10 -22 5 -10 18 -49 24 -49 8 0 -17 12 -41 21 -41 5 0 9 10 9 23 1 21 1
21 11 3 12 -19 -1 -36 -28 -36 -7 0 -13 -5 -13 -10 0 -7 6 -7 19 0 25 13 31
13 31 0 0 -5 -7 -10 -16 -10 -8 0 -12 -4 -9 -10 3 -5 -1 -10 -10 -10 -8 0 -20
10 -25 23 -8 21 -9 21 -9 -5 -1 -33 -14 -35 -41 -8 -24 24 -30 25 -30 6 0 -20
-18 -24 -72 -19 -58 7 -88 -4 -177 -62 -58 -38 -69 -50 -60 -61 8 -10 8 -14 0
-14 -6 0 -11 -4 -11 -10 0 -5 7 -10 16 -10 8 0 13 -4 10 -9 -3 -5 1 -12 10
-15 8 -3 13 -10 10 -15 -3 -5 4 -11 17 -15 30 -8 39 -7 33 2 -5 9 78 7 93 -2
7 -4 11 1 11 13 0 25 15 28 24 5 4 -12 10 -13 19 -6 7 6 43 8 87 5 105 -7 132
-5 142 9 6 10 8 10 8 1 0 -20 20 -15 20 5 1 16 2 16 15 -2 10 -14 21 -17 40
-12 15 4 32 3 38 -2 28 -22 87 2 87 35 0 7 5 13 10 13 6 0 10 -7 10 -16 0 -30
32 -49 82 -50 40 -1 48 2 48 18 0 24 20 23 27 -1 7 -29 33 -35 33 -8 1 22 1
22 18 2 11 -13 32 -21 61 -23 25 -1 50 -7 57 -13 8 -7 15 -6 20 2 4 8 3 9 -4
5 -7 -4 -12 -3 -12 2 0 11 24 22 46 22 12 0 12 -4 4 -20 -6 -11 -7 -20 -3 -19
33 6 45 -2 41 -26 -4 -21 -3 -23 13 -15 22 12 35 32 18 28 -6 -2 -14 3 -16 10
-3 7 5 12 21 12 24 0 26 -3 20 -27 -4 -16 -11 -31 -17 -34 -5 -4 -5 -9 2 -13
6 -4 11 -3 11 2 0 6 9 8 20 5 21 -6 28 -43 8 -43 -6 0 -9 -2 -6 -5 3 -3 11 -3
19 0 17 6 24 91 9 110 -7 9 -7 21 0 39 14 37 13 416 -1 416 -5 0 -8 -4 -4 -9
3 -6 -6 -7 -22 -2 -16 4 -41 4 -58 1 -16 -3 -43 -3 -60 1 -73 17 -82 18 -92 8z
m-26 -48 c0 -11 -6 -17 -14 -14 -14 6 -17 16 -6 26 12 13 22 7 20 -12z m52
-22 c-22 -14 -33 -10 -19 6 7 8 17 12 22 9 6 -4 5 -10 -3 -15z m74 -3 c18 6
24 -11 8 -20 -15 -10 -41 5 -41 23 0 12 2 13 8 3 5 -7 16 -10 25 -6z m107 -16
c-19 -13 -30 -13 -30 0 0 6 10 10 23 10 18 0 19 -2 7 -10z m25 -29 c3 -5 1
-12 -5 -16 -5 -3 -10 1 -10 9 0 18 6 21 15 7z m-195 -5 c0 -3 -4 -8 -10 -11
-5 -3 -10 -1 -10 4 0 6 5 11 10 11 6 0 10 -2 10 -4z m120 -17 c0 -5 -4 -9 -10
-9 -5 0 -10 7 -10 16 0 8 5 12 10 9 6 -3 10 -10 10 -16z m-460 -38 c0 -14 2
-14 10 -1 5 8 12 11 17 7 10 -10 -18 -28 -34 -22 -7 2 -12 -1 -10 -7 1 -6 -4
-13 -11 -15 -8 -3 -10 1 -6 11 5 12 2 15 -10 10 -9 -3 -16 -10 -16 -14 0 -4
-9 -10 -21 -13 -12 -3 -18 -10 -14 -16 3 -6 1 -11 -4 -11 -6 0 -11 5 -11 10 0
6 -7 10 -15 10 -8 0 -15 -6 -15 -14 0 -7 -9 -16 -20 -19 -14 -4 -20 -14 -20
-32 0 -22 -4 -26 -20 -22 -10 3 -20 1 -22 -4 -2 -4 -10 -4 -18 2 -11 8 -12 12
-2 16 6 2 12 11 12 19 0 8 4 14 10 14 5 0 6 8 3 18 -6 15 -5 15 12 -2 18 -18
19 -18 42 8 13 15 23 34 23 42 0 8 4 13 9 10 5 -4 12 0 15 6 3 7 3 3 1 -9 -8
-32 9 -36 35 -8 13 14 29 25 37 25 7 0 13 7 13 15 0 9 6 12 15 9 8 -4 15 -14
15 -23z m190 19 c0 -5 -7 -7 -15 -4 -8 4 -15 8 -15 10 0 2 7 4 15 4 8 0 15 -4
15 -10z m-330 -4 c0 -11 -19 -15 -25 -6 -3 5 1 10 9 10 9 0 16 -2 16 -4z m275
-16 c-6 -18 -4 -19 18 -11 37 14 42 -1 6 -16 -18 -7 -34 -11 -37 -9 -6 6 6 56
14 56 3 0 2 -9 -1 -20z m119 4 c3 -9 6 -23 6 -32 -1 -12 -5 -10 -15 8 -8 14
-14 28 -15 33 0 13 18 7 24 -9z m222 1 c8 -20 22 -19 26 3 3 13 8 9 20 -15 9
-18 13 -35 8 -38 -5 -3 -11 -1 -15 5 -3 5 -18 10 -32 10 -19 0 -24 4 -19 16 5
12 1 14 -16 8 -20 -6 -21 -5 -9 10 17 20 30 21 37 1z m-368 -25 c1 -30 -22
-43 -31 -17 -2 7 -10 0 -19 -17 -12 -23 -16 -26 -21 -12 -5 11 -3 15 5 10 8
-5 9 2 5 23 -5 27 -3 30 12 26 10 -3 22 0 25 6 13 20 23 11 24 -19z m-296 0
c-2 -7 5 -9 18 -5 24 8 26 -1 5 -21 -11 -11 -15 -12 -15 -3 0 7 -3 10 -6 6
-10 -9 -32 17 -27 31 7 16 29 9 25 -8z m558 -10 c0 -5 -4 -10 -10 -10 -5 0
-10 5 -10 10 0 6 5 10 10 10 6 0 10 -4 10 -10z m-360 -26 c0 -8 -4 -12 -10 -9
-5 3 -10 13 -10 21 0 8 5 12 10 9 6 -3 10 -13 10 -21z m165 16 c-3 -5 -11 -10
-16 -10 -6 0 -7 5 -4 10 3 6 11 10 16 10 6 0 7 -4 4 -10z m45 -5 c7 -9 8 -15
2 -15 -5 0 -12 7 -16 15 -3 8 -4 15 -2 15 2 0 9 -7 16 -15z m-639 -18 c-10 -9
-11 -8 -5 6 3 10 9 15 12 12 3 -3 0 -11 -7 -18z m112 -7 c3 -11 1 -20 -4 -20
-5 0 -9 3 -10 8 0 4 -2 15 -4 25 -4 23 11 12 18 -13z m73 15 c4 -8 1 -21 -5
-29 -6 -7 -8 -16 -4 -19 3 -4 -2 -9 -11 -13 -10 -4 -22 -2 -29 5 -8 8 -6 11 7
11 12 0 16 5 12 15 -3 8 -1 15 4 15 5 0 7 7 4 15 -4 8 -1 15 5 15 7 0 14 -7
17 -15z m694 5 c0 -5 -7 -10 -15 -10 -8 0 -15 5 -15 10 0 6 7 10 15 10 8 0 15
-4 15 -10z m-130 -4 c0 -2 -7 -7 -16 -10 -8 -3 -12 -2 -9 4 6 10 25 14 25 6z
m-190 -38 c0 -14 -17 -8 -35 12 -17 19 -17 19 9 7 14 -7 26 -15 26 -19z m360
22 c8 -5 11 -12 8 -16 -10 -9 -38 3 -38 16 0 12 10 13 30 0z m-210 -31 c0 -19
-26 -8 -27 12 -2 17 1 18 13 9 8 -7 14 -16 14 -21z m-285 1 c3 -5 1 -10 -4
-10 -6 0 -11 5 -11 10 0 6 2 10 4 10 3 0 8 -4 11 -10z m55 -7 c0 -2 -7 -11
-15 -20 -12 -12 -13 -18 -4 -29 9 -11 7 -14 -9 -14 -27 0 -38 18 -17 26 9 4
14 13 11 21 -8 20 2 33 19 26 8 -3 15 -7 15 -10z m-137 -8 c-3 -9 -8 -14 -10
-11 -3 3 -2 9 2 15 9 16 15 13 8 -4z m579 -17 c-9 -9 -12 -9 -12 1 0 11 -3 11
-14 1 -11 -8 -20 -9 -33 -1 -16 9 -15 10 9 11 15 0 30 5 34 11 4 8 9 8 17 0 8
-8 8 -14 -1 -23z m-792 -8 c0 -5 -7 -10 -15 -10 -8 0 -15 5 -15 10 0 6 7 10
15 10 8 0 15 -4 15 -10z m660 -25 c0 -3 -9 -1 -20 5 -11 6 -18 15 -15 21 6 9
35 -12 35 -26z m170 25 c0 -5 -4 -10 -10 -10 -5 0 -10 5 -10 10 0 6 5 10 10
10 6 0 10 -4 10 -10z m-793 -15 c8 -9 13 -19 10 -22 -6 -5 -37 21 -37 31 0 10
11 6 27 -9z m208 5 c3 -5 1 -10 -4 -10 -6 0 -11 5 -11 10 0 6 2 10 4 10 3 0 8
-4 11 -10z m279 -11 c-3 -5 -10 -7 -15 -3 -5 3 -7 10 -3 15 3 5 10 7 15 3 5
-3 7 -10 3 -15z m66 0 c0 -5 -4 -9 -10 -9 -5 0 -10 7 -10 16 0 8 5 12 10 9 6
-3 10 -10 10 -16z m-755 1 c3 -5 1 -10 -4 -10 -6 0 -11 5 -11 10 0 6 2 10 4
10 3 0 8 -4 11 -10z m295 0 c0 -5 -4 -10 -10 -10 -5 0 -10 5 -10 10 0 6 5 10
10 10 6 0 10 -4 10 -10z m-125 -10 c3 -5 1 -10 -4 -10 -6 0 -11 5 -11 10 0 6
2 10 4 10 3 0 8 -4 11 -10z m215 6 c0 -3 -4 -8 -10 -11 -5 -3 -10 -1 -10 4 0
6 5 11 10 11 6 0 10 -2 10 -4z m494 -26 c8 -16 11 -30 6 -30 -8 0 -20 24 -19
36 0 4 -5 11 -13 15 -9 6 -9 9 -1 9 6 0 18 -13 27 -30z m-94 4 c0 -8 -4 -12
-10 -9 -5 3 -10 10 -10 16 0 5 5 9 10 9 6 0 10 -7 10 -16z m-585 -43 c-6 -5
-25 10 -25 20 0 5 6 4 14 -3 8 -7 12 -15 11 -17z m575 9 c0 -5 -5 -10 -11 -10
-5 0 -7 5 -4 10 3 6 8 10 11 10 2 0 4 -4 4 -10z m-250 -10 c0 -5 -4 -10 -10
-10 -5 0 -10 5 -10 10 0 6 5 10 10 10 6 0 10 -4 10 -10z"/>
<path d="M4160 2110 c0 -5 5 -10 11 -10 5 0 7 5 4 10 -3 6 -8 10 -11 10 -2 0
-4 -4 -4 -10z"/>
<path d="M3955 2380 c3 -5 8 -10 11 -10 2 0 4 5 4 10 0 6 -5 10 -11 10 -5 0
-7 -4 -4 -10z"/>
<path d="M3861 2363 c-14 -11 -14 -13 4 -14 32 -2 47 2 61 15 10 11 7 13 -18
12 -17 -1 -38 -6 -47 -13z"/>
<path d="M3828 2333 c6 -2 18 -2 25 0 6 3 1 5 -13 5 -14 0 -19 -2 -12 -5z"/>
<path d="M3537 2312 c-18 -20 -30 -82 -16 -82 5 0 11 12 15 28 4 15 13 37 20
50 17 27 4 29 -19 4z"/>
<path d="M3680 2289 c-25 -14 -28 -18 -10 -12 14 4 37 7 53 8 15 0 28 5 30 10
4 18 -37 15 -73 -6z"/>
<path d="M4077 2283 c-4 -3 -26 -6 -49 -5 l-43 1 30 -13 c21 -9 32 -10 37 -2
5 7 8 6 8 -4 0 -12 3 -11 17 3 9 9 14 19 12 22 -3 3 -9 2 -12 -2z"/>
<path d="M3618 2253 c6 -2 18 -2 25 0 6 3 1 5 -13 5 -14 0 -19 -2 -12 -5z"/>
<path d="M3970 2250 c-8 -5 -11 -12 -7 -16 3 -4 13 -2 20 4 8 7 17 9 20 5 4
-3 7 -1 7 5 0 14 -19 15 -40 2z"/>
<path d="M3560 2240 c-12 -7 -10 -9 8 -7 12 0 22 5 22 9 0 11 -12 10 -30 -2z"/>
<path d="M4045 2210 c3 -5 8 -10 11 -10 2 0 4 5 4 10 0 6 -5 10 -11 10 -5 0
-7 -4 -4 -10z"/>
<path d="M2606 2155 c-4 -10 1 -15 16 -15 17 0 18 2 8 15 -7 8 -14 15 -15 15
-2 0 -5 -7 -9 -15z"/>
<path d="M2365 2056 c-39 -11 -39 -11 27 -11 37 1 70 4 74 8 4 4 -1 7 -12 8
-10 0 -26 2 -34 3 -8 2 -33 -2 -55 -8z"/>
<path d="M1206 2041 c-7 -9 -15 -25 -18 -36 -5 -20 -1 -21 86 -21 50 -1 123
-3 163 -5 40 -2 69 -1 65 3 -4 3 -69 21 -145 40 -124 31 -138 33 -151 19z"/>
<path d="M3074 2028 c-12 -37 -13 -68 -3 -74 5 -3 40 9 77 27 64 31 90 42 122
52 10 4 9 6 -5 6 -11 1 -45 -8 -75 -20 -64 -24 -100 -34 -100 -26 0 3 4 17 10
31 7 20 6 26 -5 26 -7 0 -17 -10 -21 -22z"/>
<path d="M3630 2036 c-14 -8 -50 -17 -79 -21 -65 -9 -137 -33 -106 -35 11 -1
73 -3 137 -3 116 -2 118 -2 118 21 0 12 -5 22 -11 22 -7 0 -17 6 -23 14 -9 13
-15 13 -36 2z"/>
<path d="M4350 1980 c0 -6 7 -10 15 -10 8 0 15 2 15 4 0 2 -7 6 -15 10 -8 3
-15 1 -15 -4z"/>
<path d="M705 1970 c-3 -5 -1 -10 4 -10 6 0 11 5 11 10 0 6 -2 10 -4 10 -3 0
-8 -4 -11 -10z"/>
<path d="M4868 1853 c7 -3 16 -2 19 1 4 3 -2 6 -13 5 -11 0 -14 -3 -6 -6z"/>
<path d="M4897 1806 c-6 -15 1 -26 15 -26 4 0 8 9 8 20 0 23 -15 27 -23 6z"/>
<path d="M217 1739 c7 -7 15 -10 18 -7 3 3 -2 9 -12 12 -14 6 -15 5 -6 -5z"/>
<path d="M270 1723 c0 -7 -7 -13 -15 -13 -8 0 -15 -7 -15 -15 0 -7 -7 -18 -15
-22 -10 -6 -3 -9 24 -9 36 0 39 1 29 19 -7 14 -7 17 1 13 14 -9 14 4 1 24 -6
10 -10 11 -10 3z"/>
<path d="M4886 1716 c3 -8 12 -12 20 -9 21 8 17 23 -6 23 -13 0 -18 -5 -14
-14z"/>
<path d="M2180 1675 c0 -10 33 -67 47 -83 7 -7 17 -11 22 -7 12 7 3 35 -18 55
-30 28 -51 42 -51 35z"/>
<path d="M2287 1604 c-4 -4 -7 -14 -7 -23 0 -13 2 -13 9 -3 4 8 11 13 15 13 3
-1 6 2 7 6 1 10 -16 15 -24 7z"/>
<path d="M2550 1540 c0 -5 5 -10 10 -10 6 0 10 5 10 10 0 6 -4 10 -10 10 -5 0
-10 -4 -10 -10z"/>
<path d="M2490 1510 c0 -5 5 -10 10 -10 6 0 10 5 10 10 0 6 -4 10 -10 10 -5 0
-10 -4 -10 -10z"/>
<path d="M2368 1453 c7 -3 16 -2 19 1 4 3 -2 6 -13 5 -11 0 -14 -3 -6 -6z"/>
<path d="M3133 1363 c9 -2 23 -2 30 0 6 3 -1 5 -18 5 -16 0 -22 -2 -12 -5z"/>
<path d="M17 1343 c-3 -4 -5 -224 -6 -488 -2 -442 0 -478 14 -457 9 12 14 26
11 30 -2 4 -1 14 5 22 5 9 9 10 9 3 0 -14 51 9 70 32 7 8 16 13 20 10 5 -3 12
9 15 27 7 30 8 31 22 12 8 -10 19 -18 24 -17 5 2 9 -4 9 -12 0 -22 21 -18 27
5 3 11 9 20 14 20 10 0 10 -2 14 -38 3 -33 9 -35 36 -11 23 19 24 28 27 141 3
128 13 168 37 148 17 -14 34 14 36 57 1 26 2 25 12 -9 12 -43 24 -49 30 -15 4
19 4 18 6 -6 2 -39 24 -29 38 18 l11 40 1 -42 c1 -42 12 -55 27 -32 4 8 11 4
19 -11 10 -19 13 -20 18 -6 4 9 13 16 22 16 8 0 15 6 15 13 0 8 3 7 10 -3 15
-23 35 3 39 53 1 5 6 5 12 1 6 -3 8 -18 5 -33 -3 -14 -3 -20 0 -13 3 6 9 10
14 7 17 -10 28 23 31 94 3 53 0 76 -9 79 -6 2 -12 18 -13 35 l-1 32 -12 -40
c-13 -39 -13 -38 -20 59 -3 54 -4 101 -1 105 3 3 18 5 33 6 30 0 28 19 -3 22
-11 0 -24 2 -30 3 -15 3 -135 0 -170 -4 -16 -2 -37 0 -47 5 -11 6 -18 4 -22
-8 -9 -22 12 -43 23 -24 7 11 9 11 14 0 3 -10 8 -11 16 -3 16 15 61 5 61 -14
0 -13 3 -12 20 3 16 15 22 15 35 5 17 -14 21 -35 5 -25 -5 3 -10 -3 -10 -14 0
-17 -6 -21 -36 -21 -46 0 -41 -23 7 -30 19 -3 34 -11 33 -17 -1 -7 -2 -29 -2
-48 -1 -19 -5 -34 -9 -34 -5 1 -20 1 -35 0 -23 -1 -28 -6 -29 -28 0 -16 -5
-37 -10 -48 -7 -15 -8 -8 -5 28 3 41 1 47 -15 47 -13 0 -19 -7 -19 -21 0 -12
-4 -17 -11 -14 -6 4 -8 13 -5 21 3 8 -1 14 -9 14 -9 0 -15 -14 -18 -37 l-4
-38 -1 38 c-2 32 -5 37 -27 37 -16 0 -25 6 -25 15 0 8 -7 15 -15 15 -8 0 -15
-6 -15 -12 0 -7 -6 -4 -14 7 -15 23 -20 145 -5 145 10 0 13 -21 10 -57 -1 -13
3 -23 9 -23 5 0 10 7 10 15 0 18 1 18 34 5 22 -8 26 -7 26 9 0 14 -6 17 -32
13 -29 -4 -31 -3 -20 11 8 9 10 22 6 28 -4 8 -3 9 4 5 7 -4 12 -2 12 4 0 6 4
9 9 5 11 -6 25 31 16 44 -10 18 -45 8 -46 -14 -1 -18 -2 -18 -6 -2 -3 10 -11
16 -18 13 -7 -2 -21 6 -29 19 -15 22 -15 25 2 34 9 5 36 8 60 6 35 -2 42 1 42
16 0 16 -8 19 -55 19 -67 0 -74 20 -7 21 77 2 156 8 169 13 7 3 15 1 18 -4 3
-5 32 -7 63 -4 31 3 74 7 95 8 21 2 41 7 45 11 4 4 -81 5 -188 1 -310 -11
-332 -13 -342 -27 -7 -11 -11 -11 -15 -1 -2 6 -14 12 -26 12 -18 0 -19 -2 -7
-10 12 -8 11 -10 -7 -10 -13 0 -23 6 -23 14 0 8 -14 17 -32 21 -18 4 -40 9
-50 11 -9 3 -18 1 -21 -3z m93 -39 c0 -2 -7 -4 -15 -4 -8 0 -15 4 -15 10 0 5
7 7 15 4 8 -4 15 -8 15 -10z m153 -111 c-5 -102 -21 -136 -19 -40 1 79 -7 78
-14 -1 -5 -58 -20 -72 -32 -30 -6 24 -7 24 -12 -44 -1 -8 8 -12 20 -11 18 2
23 -4 26 -33 4 -34 -6 -57 -14 -33 -3 8 -9 6 -20 -5 -15 -14 -17 -13 -23 22
-3 20 -3 56 -1 80 4 25 2 42 -4 42 -6 0 -10 8 -10 18 0 14 2 15 10 2 9 -13 11
-13 20 0 14 21 12 30 -5 30 -17 0 -20 35 -4 46 6 3 9 15 6 25 -3 11 -1 19 4
19 5 0 9 -7 9 -15 0 -8 5 -15 10 -15 6 0 10 5 10 11 0 8 5 8 15 -1 13 -10 15
-9 15 9 0 12 4 20 8 17 5 -3 7 -45 5 -93z m367 -49 c0 -8 -5 -12 -10 -9 -6 4
-8 11 -5 16 9 14 15 11 15 -7z m-360 -130 c0 -8 -4 -14 -10 -14 -5 0 -10 9
-10 21 0 11 5 17 10 14 6 -3 10 -13 10 -21z m39 -288 c-1 -19 -2 -18 -9 4 -8
24 -8 24 -9 3 -1 -13 -5 -23 -11 -23 -11 0 -14 43 -3 53 11 11 33 -14 32 -37z
m-132 -73 c-1 -54 -3 -86 -5 -70 -2 15 -7 27 -12 27 -8 0 -4 98 6 128 8 28 11
6 11 -85z m80 -25 c-3 -8 -6 -5 -6 6 -1 11 2 17 5 13 3 -3 4 -12 1 -19z m20
-10 c-3 -8 -6 -5 -6 6 -1 11 2 17 5 13 3 -3 4 -12 1 -19z"/>
<path d="M765 1330 c41 -10 65 -12 65 -2 0 4 -21 8 -48 9 -40 1 -42 0 -17 -7z"/>
<path d="M850 1329 c0 -4 36 -7 80 -8 47 -1 80 3 80 9 0 6 -33 9 -80 8 -44 -1
-80 -5 -80 -9z"/>
<path d="M1055 1330 c-3 -5 3 -10 14 -10 12 0 21 5 21 10 0 6 -6 10 -14 10 -8
0 -18 -4 -21 -10z"/>
<path d="M1132 1335 c10 -10 68 -14 68 -4 0 5 -16 9 -37 9 -20 0 -34 -2 -31
-5z"/>
<path d="M4699 1338 c-1 -2 -2 -17 -4 -35 l-3 -31 114 -1 c71 -1 114 3 114 9
0 9 -19 11 -110 14 -19 1 -25 6 -24 24 1 20 -3 22 -42 22 -24 0 -44 -1 -45 -2z
m61 -38 c0 -5 -7 -10 -15 -10 -8 0 -15 5 -15 10 0 6 7 10 15 10 8 0 15 -4 15
-10z"/>
<path d="M4813 1333 c9 -2 23 -2 30 0 6 3 -1 5 -18 5 -16 0 -22 -2 -12 -5z"/>
<path d="M4883 1333 c9 -2 23 -2 30 0 6 3 -1 5 -18 5 -16 0 -22 -2 -12 -5z"/>
<path d="M3390 1320 c-19 -5 -10 -9 40 -17 l65 -10 -69 -2 c-48 -1 -67 -4 -60
-11 18 -18 334 -14 352 4 3 3 -2 6 -11 6 -10 0 -17 8 -17 19 0 17 -10 18 -137
18 -76 -1 -149 -4 -163 -7z m207 -29 c-22 -8 -103 -1 -89 8 6 3 32 4 59 2 29
-2 41 -6 30 -10z"/>
<path d="M3742 1319 c2 -6 7 -10 11 -10 4 1 14 1 22 1 8 0 15 5 15 10 0 6 -12
10 -26 10 -14 0 -24 -5 -22 -11z"/>
<path d="M3840 1320 c20 -13 60 -13 60 0 0 6 -17 10 -37 10 -28 0 -34 -3 -23
-10z"/>
<path d="M4048 1323 c12 -2 32 -2 45 0 12 2 2 4 -23 4 -25 0 -35 -2 -22 -4z"/>
<path d="M4128 1323 c7 -3 16 -2 19 1 4 3 -2 6 -13 5 -11 0 -14 -3 -6 -6z"/>
<path d="M4641 1308 c-11 -28 -6 -38 20 -38 14 0 19 7 19 30 0 36 -26 41 -39
8z"/>
<path d="M4552 1290 c0 -14 2 -19 5 -12 2 6 2 18 0 25 -3 6 -5 1 -5 -13z"/>
<path d="M1155 1290 c-3 -5 -2 -10 4 -10 5 0 13 5 16 10 3 6 2 10 -4 10 -5 0
-13 -4 -16 -10z"/>
<path d="M1595 1293 c-49 -7 -50 -20 0 -27 56 -9 236 2 250 15 5 5 -6 9 -30 9
-22 1 -74 2 -115 4 -41 2 -88 1 -105 -1z"/>
<path d="M2375 1286 l-50 -14 40 -2 c22 -1 43 -2 48 -1 4 0 7 -8 7 -18 0 -14
-10 -22 -32 -27 -20 -4 -27 -9 -18 -12 20 -6 50 -38 50 -52 0 -6 -4 -9 -9 -5
-12 7 -23 -27 -16 -48 4 -8 15 -17 26 -20 15 -4 19 0 20 21 1 18 3 21 6 9 2
-9 9 -15 14 -12 5 4 9 2 9 -3 0 -20 43 -21 68 -2 13 11 28 17 33 15 7 -5 89
-8 147 -6 36 2 25 20 -15 26 -21 3 -46 10 -55 16 -14 7 -18 5 -18 -6 0 -8 -4
-15 -10 -15 -5 0 -10 4 -10 8 0 4 -8 8 -17 9 -48 4 -63 8 -63 21 0 17 27 45
34 34 5 -9 124 -7 165 3 41 10 17 15 -116 21 -122 6 -131 5 -136 -12 -4 -17
-5 -17 -6 -1 0 9 -8 17 -17 17 -11 0 -14 5 -10 16 3 9 6 19 7 22 0 4 4 -2 9
-13 7 -17 9 -17 9 -2 1 13 11 17 49 18 26 1 58 4 72 9 20 6 15 7 -23 8 -27 0
-70 3 -95 5 -26 3 -69 0 -97 -7z m94 -141 c0 -5 -4 -3 -9 5 -5 8 -9 22 -9 30
0 16 17 -16 18 -35z m16 35 c3 -5 1 -10 -4 -10 -6 0 -11 5 -11 10 0 6 2 10 4
10 3 0 8 -4 11 -10z"/>
<path d="M426 1281 c-4 -7 -5 -15 -2 -18 9 -9 19 4 14 18 -4 11 -6 11 -12 0z"/>
<path d="M825 1282 c-16 -2 -34 -8 -39 -13 -6 -5 26 -9 80 -8 49 0 104 -2 122
-4 17 -2 32 1 32 6 0 5 -11 7 -25 5 -15 -3 -25 -1 -25 7 0 11 -79 15 -145 7z"/>
<path d="M1052 1275 c-11 -13 -8 -15 17 -15 23 0 29 4 25 15 -8 19 -25 19 -42
0z"/>
<path d="M1127 1270 c-3 -12 0 -20 8 -20 8 0 11 8 8 20 -3 11 -7 20 -8 20 -1
0 -5 -9 -8 -20z"/>
<path d="M1205 1280 c-3 -5 1 -10 9 -10 9 0 16 -6 16 -12 1 -8 6 -6 14 5 14
18 32 24 21 7 -3 -5 -2 -10 4 -10 5 0 11 6 14 13 3 9 7 9 19 0 14 -13 28 -8
28 9 0 12 -118 10 -125 -2z"/>
<path d="M1343 1278 c6 -18 175 -19 181 -1 4 10 -16 13 -90 13 -72 0 -95 -3
-91 -12z"/>
<path d="M3320 1280 c0 -5 7 -10 15 -10 8 0 15 5 15 10 0 6 -7 10 -15 10 -8 0
-15 -4 -15 -10z"/>
<path d="M3847 1278 c-7 -4 5 -8 26 -8 20 0 37 3 37 8 0 9 -48 9 -63 0z"/>
<path d="M626 1272 c-3 -5 -19 -9 -37 -10 -53 -1 -45 -12 9 -12 29 0 52 4 52
9 0 14 -18 23 -24 13z"/>
<path d="M670 1265 c0 -8 9 -15 20 -15 11 0 20 7 20 15 0 8 -9 15 -20 15 -11
0 -20 -7 -20 -15z"/>
<path d="M740 1270 c20 -13 33 -13 25 0 -3 6 -14 10 -23 10 -15 0 -15 -2 -2
-10z"/>
<path d="M2288 1273 c6 -2 18 -2 25 0 6 3 1 5 -13 5 -14 0 -19 -2 -12 -5z"/>
<path d="M853 1230 c-4 -13 -18 -20 -54 -25 -27 -4 -49 -10 -49 -15 0 -12 40
-20 71 -13 22 4 29 2 29 -10 0 -22 -18 -31 -35 -17 -18 15 -35 5 -36 -23 0
-12 -3 -16 -6 -9 -6 16 -23 15 -23 -2 0 -8 -7 -16 -15 -20 -8 -3 -15 -10 -15
-15 0 -6 6 -8 14 -5 8 3 17 1 20 -5 4 -6 13 -8 21 -4 9 3 15 -1 15 -8 1 -11 3
-11 9 1 7 12 30 15 105 15 53 0 96 3 96 7 0 4 6 5 14 2 7 -3 16 1 19 10 3 8
-1 17 -9 20 -8 3 -14 12 -14 19 0 11 -11 13 -45 11 -36 -3 -46 0 -54 15 -10
18 -6 19 51 20 33 0 63 3 65 5 10 10 -10 26 -32 26 -13 0 -29 8 -34 18 -8 14
-10 14 -11 2 0 -20 -40 -24 -40 -4 0 8 -3 14 -7 15 -5 0 -16 2 -27 4 -11 2
-20 -3 -23 -15z"/>
<path d="M3384 1228 c-9 -15 -1 -18 54 -20 30 -1 52 -7 52 -13 0 -7 -12 -10
-29 -7 -31 4 -44 -7 -36 -30 7 -17 34 -20 53 -5 8 6 12 6 12 -2 0 -6 9 -11 19
-11 11 0 23 -4 26 -10 3 -5 17 -10 31 -10 22 0 24 4 24 45 0 33 4 45 15 45 10
0 15 -10 15 -30 0 -23 4 -30 20 -30 14 0 18 -5 13 -17 -7 -17 -6 -17 11 0 9 9
24 17 32 17 8 0 14 5 14 10 0 6 -7 10 -15 10 -8 0 -15 5 -15 10 0 6 5 10 11
10 5 0 7 5 4 10 -3 6 1 10 9 10 19 0 22 20 4 20 -7 0 -82 2 -166 4 -87 2 -155
-1 -158 -6z m154 -36 c2 -7 -3 -12 -12 -12 -9 0 -16 7 -16 16 0 17 22 14 28
-4z"/>
<path d="M3843 1232 c-7 -4 -11 -33 -10 -75 l2 -67 29 2 c18 2 31 10 37 23 8
20 8 20 15 -2 3 -13 11 -23 16 -23 5 0 6 9 3 21 -4 11 -7 40 -7 65 0 26 -5 47
-11 49 -36 11 -64 13 -74 7z m47 -37 c0 -8 6 -12 14 -9 11 4 13 0 9 -16 -4
-16 -8 -18 -14 -8 -7 10 -9 10 -9 -2 0 -13 -1 -13 -10 0 -13 20 -13 50 0 50 6
0 10 -7 10 -15z"/>
<path d="M4710 1210 c-8 -5 -11 -10 -6 -10 5 0 4 -6 -2 -13 -15 -18 -13 -248
2 -241 6 3 3 -1 -7 -10 -14 -11 -17 -21 -11 -38 4 -13 7 -29 6 -35 -2 -7 2
-22 8 -34 8 -15 15 -18 24 -10 7 6 16 7 21 3 4 -4 4 20 -1 53 -4 33 -9 116
-10 185 -1 69 -3 130 -4 135 -1 6 -2 13 -1 18 1 9 -1 9 -19 -3z"/>
<path d="M4800 1211 c0 -6 -9 -12 -19 -16 -18 -5 -19 -14 -14 -138 2 -73 5
-161 5 -197 0 -36 2 -59 5 -52 7 18 33 15 34 -5 1 -10 5 -2 10 17 5 19 7 71 4
115 -3 56 -2 74 5 60 7 -14 8 -7 3 25 -8 57 -6 94 7 98 6 2 10 15 10 28 0 14
4 22 10 19 12 -8 12 -95 -2 -164 -7 -38 -7 -56 1 -64 14 -14 14 -42 -1 -66 -9
-15 -7 -24 10 -49 14 -19 22 -45 22 -71 0 -30 3 -39 14 -35 11 4 13 30 9 137
-4 136 -4 230 1 305 3 32 -1 45 -14 52 -11 6 -21 5 -29 -3 -8 -8 -14 -8 -19
-2 -9 13 -52 18 -52 6z m-8 -163 c-6 -6 -7 0 -4 19 5 21 7 23 10 9 2 -10 0
-22 -6 -28z"/>
<path d="M1050 1200 c-12 -8 -12 -10 -1 -10 11 0 12 -11 8 -49 -7 -55 -4 -61
24 -54 22 6 26 33 4 33 -8 0 -15 5 -15 10 0 6 7 10 15 10 10 0 15 11 15 35 0
37 -18 46 -50 25z"/>
<path d="M1119 1200 c-7 -95 10 -149 30 -97 6 15 15 27 21 27 13 0 13 23 -2
55 -11 24 -47 36 -49 15z m51 -44 c0 -8 -4 -18 -10 -21 -5 -3 -10 3 -10 14 0
12 5 21 10 21 6 0 10 -6 10 -14z"/>
<path d="M1195 1200 c-4 -6 0 -21 8 -33 13 -19 12 -25 0 -44 -14 -21 -14 -23
5 -30 11 -5 68 -7 125 -5 98 3 105 5 112 25 l6 22 9 -23 c14 -34 30 -17 30 33
0 44 -17 64 -39 42 -8 -8 -11 -6 -11 9 0 14 -2 16 -9 5 -5 -7 -11 -9 -14 -4
-8 13 -214 16 -222 3z m154 -65 c1 -6 -23 -10 -54 -11 -30 0 -55 4 -55 8 0 13
48 28 65 22 9 -4 18 1 22 12 6 16 7 16 14 -2 4 -10 8 -24 8 -29z m31 5 c0 -5
-4 -10 -10 -10 -5 0 -10 5 -10 10 0 6 5 10 10 10 6 0 10 -4 10 -10z"/>
<path d="M3791 1174 c0 -11 3 -14 6 -6 3 7 2 16 -1 19 -3 4 -6 -2 -5 -13z"/>
<path d="M4080 1162 c0 -7 -4 -11 -9 -8 -4 3 -13 -6 -20 -20 -6 -14 -16 -22
-21 -19 -6 3 -10 1 -10 -4 0 -14 27 -14 36 0 4 8 9 7 15 -2 7 -11 9 -10 9 5 0
15 3 16 15 6 12 -10 15 -10 15 2 0 18 -29 58 -30 40z"/>
<path d="M4172 1135 c0 -16 2 -22 5 -12 2 9 2 23 0 30 -3 6 -5 -1 -5 -18z"/>
<path d="M4200 1141 c0 -13 3 -21 7 -18 3 4 12 -1 19 -11 7 -9 14 -12 14 -6 0
7 -9 22 -20 35 l-19 24 -1 -24z"/>
<path d="M672 1103 c2 -21 8 -37 13 -35 6 1 13 -12 16 -30 5 -25 7 -19 8 28 1
48 -3 63 -15 68 -25 9 -25 8 -22 -31z"/>
<path d="M3622 1120 c0 -14 2 -19 5 -12 2 6 2 18 0 25 -3 6 -5 1 -5 -13z"/>
<path d="M4130 1131 c0 -6 5 -13 10 -16 6 -3 10 1 10 9 0 9 -4 16 -10 16 -5 0
-10 -4 -10 -9z"/>
<path d="M4550 1131 c0 -4 11 -6 25 -3 14 2 25 6 25 8 0 2 -11 4 -25 4 -14 0
-25 -4 -25 -9z"/>
<path d="M3801 1114 c0 -11 3 -14 6 -6 3 7 2 16 -1 19 -3 4 -6 -2 -5 -13z"/>
<path d="M3995 1121 c-3 -5 -1 -12 5 -16 5 -3 10 1 10 9 0 18 -6 21 -15 7z"/>
<path d="M460 1080 c0 -5 7 -7 15 -4 8 4 15 8 15 10 0 2 -7 4 -15 4 -8 0 -15
-4 -15 -10z"/>
<path d="M761 1024 c0 -11 3 -14 6 -6 3 7 2 16 -1 19 -3 4 -6 -2 -5 -13z"/>
<path d="M790 1017 c0 -18 -8 -30 -27 -39 -32 -15 -45 -56 -36 -113 8 -55 23
-73 40 -49 12 17 13 17 13 -1 0 -16 2 -17 18 -3 9 9 23 13 30 11 7 -3 16 3 18
14 3 10 15 23 27 28 16 8 22 19 23 45 1 74 2 77 20 52 10 -15 14 -35 11 -55
-7 -52 6 -75 41 -69 33 4 53 36 51 80 l-1 27 -8 -30 -8 -30 -1 29 c0 16 5 34
13 40 9 7 12 22 9 44 -5 28 -9 32 -37 32 -17 0 -42 -7 -54 -16 -22 -15 -24
-15 -36 2 -17 23 -40 10 -26 -16 12 -22 5 -27 -35 -26 -26 1 -30 5 -30 28 0
14 -3 30 -7 34 -5 4 -8 -4 -8 -19z m73 -68 c-6 -6 -9 -17 -7 -24 3 -7 1 -16
-5 -20 -15 -9 -14 28 1 43 7 7 14 12 17 12 3 0 0 -5 -6 -11z"/>
<path d="M1233 1033 c-16 -6 -17 -39 -2 -48 5 -4 19 1 30 11 20 18 26 40 8 28
-6 -3 -14 -2 -18 3 -3 6 -12 8 -18 6z"/>
<path d="M1056 1022 c-2 -4 -6 -23 -10 -42 -3 -19 -3 -29 0 -22 3 6 12 12 20
12 8 0 14 -6 15 -12 1 -17 17 22 18 43 1 16 -35 33 -43 21z"/>
<path d="M1120 1001 c0 -17 4 -32 8 -35 13 -8 72 34 72 51 0 11 -3 13 -13 5
-8 -7 -18 -7 -27 -2 -27 17 -40 11 -40 -19z"/>
<path d="M4223 952 c-1 -31 -2 -61 -3 -67 -5 -22 1 -35 14 -35 20 0 25 20 13
50 -5 14 -9 42 -8 62 1 20 -2 39 -7 42 -4 3 -9 -21 -9 -52z"/>
<path d="M3858 993 c-12 -3 -17 -18 -20 -65 -1 -33 -1 -63 2 -68 3 -4 26 -7
52 -6 l48 1 0 68 c0 43 -4 66 -10 62 -5 -3 -10 -30 -10 -58 0 -38 -3 -48 -10
-37 -9 13 -11 13 -20 0 -7 -11 -10 -1 -9 35 l0 50 14 -30 c11 -25 13 -27 14
-9 1 28 -29 62 -51 57z"/>
<path d="M2409 983 c-13 -3 -15 -33 -13 -231 1 -125 4 -236 7 -247 3 -11 6
-23 6 -27 1 -11 45 -5 53 7 4 6 8 20 8 33 0 12 4 22 9 22 10 0 21 -49 21 -95
0 -44 27 -66 58 -50 13 7 19 14 12 17 -15 5 -32 85 -25 120 6 27 22 34 63 29
8 -1 12 12 12 36 0 33 -6 44 -40 72 -22 18 -38 36 -36 40 3 4 -1 35 -8 69 -9
44 -9 65 -2 72 8 8 7 13 -3 19 -20 13 -4 51 21 51 18 0 16 5 -16 37 -26 27
-39 34 -47 26 -6 -6 -22 -8 -38 -4 -14 4 -33 6 -42 4z m48 -155 c-3 -8 -6 -5
-6 6 -1 11 2 17 5 13 3 -3 4 -12 1 -19z m33 -94 c0 -8 -4 -12 -10 -9 -5 3 -10
10 -10 16 0 5 5 9 10 9 6 0 10 -7 10 -16z"/>
<path d="M3795 981 c-3 -5 -1 -12 5 -16 5 -3 10 1 10 9 0 18 -6 21 -15 7z"/>
<path d="M4085 981 c-3 -5 -1 -12 5 -16 5 -3 10 1 10 9 0 18 -6 21 -15 7z"/>
<path d="M4142 970 c0 -14 2 -19 5 -12 2 6 2 18 0 25 -3 6 -5 1 -5 -13z"/>
<path d="M2600 976 c0 -2 9 -6 20 -9 11 -3 20 -1 20 4 0 5 -9 9 -20 9 -11 0
-20 -2 -20 -4z"/>
<path d="M4022 960 c0 -14 2 -19 5 -12 2 6 2 18 0 25 -3 6 -5 1 -5 -13z"/>
<path d="M4000 901 c0 -25 5 -41 15 -45 12 -4 15 3 13 34 -2 54 -28 64 -28 11z"/>
<path d="M4077 933 c-9 -16 6 -73 19 -73 17 0 27 17 14 25 -5 3 -7 17 -4 31 5
18 2 24 -9 24 -9 0 -18 -3 -20 -7z"/>
<path d="M4440 897 c0 -26 4 -47 9 -47 8 0 3 79 -5 89 -2 2 -4 -17 -4 -42z"/>
<path d="M4338 905 c2 -14 6 -25 8 -25 2 0 4 11 4 25 0 14 -4 25 -9 25 -4 0
-6 -11 -3 -25z"/>
<path d="M4641 925 c-11 -55 -12 -89 -1 -79 6 6 10 29 7 50 -2 22 -5 35 -6 29z"/>
<path d="M3790 891 c0 -16 5 -33 10 -36 6 -4 10 6 10 24 0 16 -4 33 -10 36 -6
4 -10 -6 -10 -24z"/>
<path d="M4183 885 c0 -22 2 -30 4 -17 2 12 2 30 0 40 -3 9 -5 -1 -4 -23z"/>
<path d="M4550 890 c0 -5 5 -10 11 -10 5 0 7 5 4 10 -3 6 -8 10 -11 10 -2 0
-4 -4 -4 -10z"/>
<path d="M4041 873 c0 -11 3 -13 6 -5 2 6 10 9 15 6 7 -4 8 -2 4 4 -11 18 -26
14 -25 -5z"/>
<path d="M4335 860 c4 -6 11 -8 16 -5 14 9 11 15 -7 15 -8 0 -12 -5 -9 -10z"/>
<path d="M2372 725 c0 -16 2 -22 5 -12 2 9 2 23 0 30 -3 6 -5 -1 -5 -18z"/>
<path d="M2332 720 c0 -14 2 -19 5 -12 2 6 2 18 0 25 -3 6 -5 1 -5 -13z"/>
<path d="M354 704 c-4 -14 -2 -30 5 -37 8 -8 11 -1 11 26 0 43 -7 48 -16 11z"/>
<path d="M532 714 c-6 -10 -12 -13 -12 -6 0 6 -4 12 -8 12 -5 0 -9 -21 -9 -47
l-1 -48 15 29 c12 22 17 26 24 15 5 -8 9 -10 9 -5 0 5 7 3 15 -4 12 -10 15
-10 15 3 0 10 6 13 20 10 11 -3 20 0 20 6 0 6 -7 11 -15 11 -8 0 -15 8 -15 17
0 13 -3 14 -12 5 -9 -9 -14 -7 -23 5 -11 15 -13 15 -23 -3z"/>
<path d="M2281 698 c-8 -21 -8 -35 -1 -42 14 -14 26 1 33 42 9 43 -17 44 -32
0z"/>
<path d="M456 696 c-14 -23 -14 -26 0 -40 8 -9 17 -16 18 -16 2 0 3 18 4 40 1
22 0 40 -2 40 -2 0 -11 -11 -20 -24z"/>
<path d="M2754 694 c5 -14 4 -15 -8 -5 -18 16 -28 -8 -19 -51 4 -20 3 -29 -4
-25 -18 11 -21 -27 -13 -125 4 -51 4 -99 1 -106 -4 -8 1 -32 12 -53 16 -33 18
-44 8 -62 -7 -12 -13 -36 -14 -52 -2 -23 -7 -29 -22 -27 -28 4 -73 4 -117 1
-31 -2 -38 -6 -38 -23 0 -15 3 -17 9 -8 7 11 10 10 15 -3 11 -30 6 -73 -9 -79
-8 -3 -15 -15 -15 -26 0 -13 -7 -20 -19 -20 -10 0 -24 -7 -31 -15 -11 -13 38
-15 430 -15 l442 0 -7 32 c-19 85 -123 208 -177 208 -16 0 -40 8 -54 17 -22
14 -27 14 -35 2 -5 -8 -9 -25 -9 -39 0 -21 -29 -66 -80 -127 -32 -38 -104 13
-98 69 2 16 -1 29 -7 28 -12 -2 -23 27 -25 65 l-1 30 -13 -38 c-8 -20 -18 -43
-24 -50 -6 -6 -12 -28 -15 -47 -3 -32 -4 -31 -5 9 -2 53 -13 46 -28 -17 l-10
-47 -8 96 c-5 53 -5 116 0 140 12 69 1 177 -15 151 -3 -6 -5 27 -5 73 1 46 5
89 10 96 12 19 13 59 2 59 -6 0 -7 -7 -4 -16z m83 -546 c-3 -8 -6 -5 -6 6 -1
11 2 17 5 13 3 -3 4 -12 1 -19z"/>
<path d="M4905 616 c5 -26 3 -40 -9 -51 -9 -9 -16 -27 -16 -41 0 -15 -6 -24
-15 -24 -9 0 -15 -9 -15 -22 1 -21 2 -22 14 -5 13 16 14 16 20 -5 3 -13 6 -39
7 -58 l1 -35 8 30 7 30 5 -30 c3 -16 6 29 7 102 0 84 -3 134 -10 138 -7 5 -8
-5 -4 -29z"/>
<path d="M2630 611 c0 -10 3 -32 6 -49 6 -28 8 -30 27 -20 21 11 21 11 2 19
-17 6 -17 8 -2 8 30 2 18 41 -15 54 -13 5 -18 1 -18 -12z"/>
<path d="M580 581 c0 -11 4 -22 9 -25 4 -3 6 6 3 19 -5 30 -12 33 -12 6z"/>
<path d="M532 570 c0 -14 2 -19 5 -12 2 6 2 18 0 25 -3 6 -5 1 -5 -13z"/>
<path d="M4780 509 c0 -32 3 -40 17 -37 9 2 20 15 24 31 6 21 3 29 -11 37 -28
15 -30 13 -30 -31z"/>
<path d="M2658 470 c-3 -19 -2 -36 3 -38 5 -2 9 -8 9 -13 0 -6 -4 -7 -10 -4
-6 4 -10 -12 -10 -41 0 -45 1 -46 19 -30 13 12 19 32 20 67 0 28 -3 47 -8 44
-6 -3 -11 7 -13 22 -3 26 -4 26 -10 -7z"/>
<path d="M2801 444 c0 -11 3 -14 6 -6 3 7 2 16 -1 19 -3 4 -6 -2 -5 -13z"/>
<path d="M2865 440 c3 -5 8 -10 11 -10 2 0 4 5 4 10 0 6 -5 10 -11 10 -5 0 -7
-4 -4 -10z"/>
<path d="M3107 443 c-4 -3 -7 -17 -7 -30 0 -28 23 -27 28 1 4 20 -11 40 -21
29z"/>
<path d="M2588 433 c7 -3 16 -2 19 1 4 3 -2 6 -13 5 -11 0 -14 -3 -6 -6z"/>
<path d="M2110 213 c0 -5 -10 -21 -22 -35 -13 -14 -29 -34 -35 -44 -17 -25
-63 -119 -63 -127 0 -4 105 -7 233 -7 179 1 227 3 212 12 -11 6 -27 19 -36 29
-8 10 -27 21 -42 24 -15 4 -27 12 -28 19 -1 20 -55 55 -105 68 -28 6 -63 25
-81 42 -18 16 -33 25 -33 19z"/>
<path d="M12 55 c0 -53 1 -57 10 -32 7 20 7 39 0 60 -9 29 -10 27 -10 -28z"/>
<path d="M4907 20 c3 -11 7 -20 9 -20 2 0 4 9 4 20 0 11 -4 20 -9 20 -5 0 -7
-9 -4 -20z"/>
</g>
</svg>
